<svg width="16" height="16" viewBox="0 0 16 16" fill="none" xmlns="http://www.w3.org/2000/svg">
<path d="M7.875 3.95703C8.57812 3.95703 9.24609 4.16797 9.87891 4.51953C10.5117 4.87109 11.0039 5.36328 11.3555 5.99609C11.707 6.62891 11.918 7.29688 11.918 8C11.918 8.73828 11.707 9.40625 11.3555 10.0391C11.0039 10.6719 10.5117 11.1641 9.87891 11.5156C9.24609 11.8672 8.57812 12.043 7.875 12.043C7.13672 12.043 6.46875 11.8672 5.83594 11.5156C5.20312 11.1641 4.71094 10.6719 4.35938 10.0391C4.00781 9.40625 3.83203 8.73828 3.83203 8C3.83203 7.29688 4.00781 6.62891 4.35938 5.99609C4.71094 5.36328 5.20312 4.87109 5.83594 4.51953C6.46875 4.16797 7.13672 3.95703 7.875 3.95703ZM7.875 10.6367C8.57812 10.6367 9.21094 10.3906 9.73828 9.86328C10.2305 9.37109 10.5117 8.73828 10.5117 8C10.5117 7.29688 10.2305 6.66406 9.73828 6.13672C9.21094 5.64453 8.57812 5.36328 7.875 5.36328C7.13672 5.36328 6.50391 5.64453 6.01172 6.13672C5.48438 6.66406 5.23828 7.29688 5.23828 8C5.23828 8.73828 5.48438 9.37109 6.01172 9.86328C6.50391 10.3906 7.13672 10.6367 7.875 10.6367ZM13.043 3.78125C13.043 3.53516 12.9375 3.32422 12.7617 3.11328C12.5508 2.9375 12.3398 2.83203 12.0938 2.83203C11.8125 2.83203 11.6016 2.9375 11.4258 3.11328C11.2148 3.32422 11.1445 3.53516 11.1445 3.78125C11.1445 4.0625 11.2148 4.27344 11.4258 4.44922C11.6016 4.66016 11.8125 4.73047 12.0938 4.73047C12.3398 4.73047 12.5508 4.66016 12.7266 4.44922C12.9023 4.27344 13.0078 4.0625 13.043 3.78125ZM15.7148 4.73047C15.7148 5.39844 15.75 6.48828 15.75 8C15.75 9.54688 15.7148 10.6367 15.6797 11.3047C15.6445 11.9727 15.5391 12.5352 15.3984 13.0273C15.1875 13.625 14.8359 14.1523 14.4141 14.5742C13.9922 14.9961 13.4648 15.3125 12.9023 15.5234C12.4102 15.6992 11.8125 15.8047 11.1445 15.8398C10.4766 15.875 9.38672 15.875 7.875 15.875C6.32812 15.875 5.23828 15.875 4.57031 15.8398C3.90234 15.8047 3.33984 15.6992 2.84766 15.4883C2.25 15.3125 1.72266 14.9961 1.30078 14.5742C0.878906 14.1523 0.5625 13.625 0.351562 13.0273C0.175781 12.5352 0.0703125 11.9727 0.0351562 11.3047C0 10.6367 0 9.54688 0 8C0 6.48828 0 5.39844 0.0351562 4.73047C0.0703125 4.0625 0.175781 3.46484 0.351562 2.97266C0.5625 2.41016 0.878906 1.88281 1.30078 1.46094C1.72266 1.03906 2.25 0.6875 2.84766 0.476562C3.33984 0.335938 3.90234 0.230469 4.57031 0.195312C5.23828 0.160156 6.32812 0.125 7.875 0.125C9.38672 0.125 10.4766 0.160156 11.1445 0.195312C11.8125 0.230469 12.4102 0.335938 12.9023 0.476562C13.4648 0.6875 13.9922 1.03906 14.4141 1.46094C14.8359 1.88281 15.1875 2.41016 15.3984 2.97266C15.5391 3.46484 15.6445 4.0625 15.7148 4.73047ZM14.0273 12.6406C14.168 12.2539 14.2383 11.6211 14.3086 10.7422C14.3086 10.25 14.3438 9.51172 14.3438 8.5625V7.4375C14.3438 6.48828 14.3086 5.75 14.3086 5.25781C14.2383 4.37891 14.168 3.74609 14.0273 3.35938C13.7461 2.65625 13.2188 2.12891 12.5156 1.84766C12.1289 1.70703 11.4961 1.63672 10.6172 1.56641C10.0898 1.56641 9.35156 1.53125 8.4375 1.53125H7.3125C6.36328 1.53125 5.625 1.56641 5.13281 1.56641C4.25391 1.63672 3.62109 1.70703 3.23438 1.84766C2.49609 2.12891 2.00391 2.65625 1.72266 3.35938C1.58203 3.74609 1.47656 4.37891 1.44141 5.25781C1.40625 5.78516 1.40625 6.52344 1.40625 7.4375V8.5625C1.40625 9.51172 1.40625 10.25 1.44141 10.7422C1.47656 11.6211 1.58203 12.2539 1.72266 12.6406C2.00391 13.3789 2.53125 13.8711 3.23438 14.1523C3.62109 14.293 4.25391 14.3984 5.13281 14.4336C5.625 14.4688 6.36328 14.4688 7.3125 14.4688H8.4375C9.38672 14.4688 10.125 14.4688 10.6172 14.4336C11.4961 14.3984 12.1289 14.293 12.5156 14.1523C13.2188 13.8711 13.7461 13.3438 14.0273 12.6406Z" fill="#ABB5BE"/>
</svg>
