<svg width="17" height="14" viewBox="0 0 17 14" fill="none" xmlns="http://www.w3.org/2000/svg">
<path d="M16.4692 1.60349C16.5395 1.1113 16.5044 0.794896 16.2934 0.583959C16.0825 0.373021 15.8012 0.337865 15.4497 0.443334L1.49266 5.82224C1.00047 6.03318 0.754374 6.24411 0.754374 6.45505C0.719218 6.70115 0.894999 6.87693 1.31687 6.9824L4.90281 8.1074L13.1997 2.86911C13.3052 2.7988 13.4106 2.76365 13.5161 2.76365C13.6216 2.76365 13.6919 2.76365 13.727 2.83396C13.7622 2.90427 13.727 2.93943 13.6567 3.00974L6.94187 9.09177L6.66062 12.7832C6.83641 12.7832 6.97703 12.748 7.11766 12.6777C7.18797 12.6426 7.25828 12.5722 7.39891 12.4316L9.15672 10.7441L12.7778 13.416C13.0942 13.6269 13.3755 13.6621 13.5864 13.5566C13.7973 13.4511 13.9731 13.2051 14.0786 12.7832L16.4692 1.60349Z" fill="#ABB5BE"/>
</svg>
