<svg width="19" height="16" viewBox="0 0 19 16" fill="none" xmlns="http://www.w3.org/2000/svg">
<path d="M16.6389 4.34375C17.342 3.81641 17.9749 3.18359 18.5022 2.41016C17.7991 2.72656 17.0959 2.9375 16.3928 3.00781C17.1663 2.51562 17.7288 1.84766 18.01 0.96875C17.2717 1.39062 16.4983 1.70703 15.6545 1.84766C15.303 1.49609 14.8811 1.21484 14.4241 1.00391C13.967 0.792969 13.4749 0.6875 12.9475 0.6875C12.2795 0.6875 11.6819 0.863281 11.1194 1.17969C10.5569 1.53125 10.0999 1.98828 9.78345 2.55078C9.43188 3.11328 9.29126 3.74609 9.29126 4.37891C9.29126 4.66016 9.29126 4.94141 9.36157 5.22266C7.84985 5.15234 6.4436 4.80078 5.10767 4.09766C3.77173 3.42969 2.68188 2.51562 1.76782 1.35547C1.41626 1.95312 1.24048 2.58594 1.24048 3.21875C1.24048 3.85156 1.3811 4.44922 1.69751 4.97656C1.97876 5.53906 2.40063 5.96094 2.89282 6.3125C2.29517 6.3125 1.73267 6.13672 1.24048 5.82031V5.89062C1.24048 6.76953 1.52173 7.54297 2.08423 8.21094C2.64673 8.91406 3.34985 9.33594 4.1936 9.51172C3.84204 9.58203 3.52563 9.61719 3.20923 9.61719C2.99829 9.61719 2.7522 9.61719 2.54126 9.58203C2.7522 10.3203 3.17407 10.918 3.80688 11.4102C4.4397 11.9023 5.14282 12.1133 5.98657 12.1133C4.61548 13.168 3.0686 13.6953 1.3811 13.6953C1.02954 13.6953 0.748291 13.6953 0.502197 13.6602C2.1897 14.7852 4.08813 15.3125 6.16235 15.3125C8.30688 15.3125 10.2053 14.7852 11.8928 13.6602C13.4045 12.6758 14.5999 11.375 15.4436 9.6875C16.2522 8.14062 16.6741 6.48828 16.6741 4.80078C16.6741 4.58984 16.6389 4.44922 16.6389 4.34375Z" fill="#ABB5BE"/>
</svg>
