<svg width="25" height="24" viewBox="0 0 25 24" fill="none" xmlns="http://www.w3.org/2000/svg">
<path d="M5.43864 13.8828L6.71862 12.6036V17.9534C6.71899 18.496 6.93477 19.0163 7.31838 19.4001C7.70209 19.7836 8.22249 19.9994 8.76503 19.9998H16.2071C16.7496 19.9994 17.27 19.7837 17.6537 19.4001C18.0373 19.0163 18.2531 18.4959 18.2535 17.9534V15.7209C18.2535 15.5214 18.1471 15.3371 17.9744 15.2375C17.8017 15.1378 17.5889 15.1378 17.4163 15.2375C17.2436 15.3371 17.1372 15.5214 17.1372 15.7209V17.9534C17.1368 18.2 17.0387 18.4363 16.8644 18.6107C16.6899 18.785 16.4536 18.8832 16.2071 18.8835H8.76504C8.51849 18.8832 8.28214 18.785 8.10775 18.6107C7.93346 18.4363 7.83528 18.1999 7.83491 17.9534V12.6033L9.11489 13.8826C9.21805 13.9934 9.36194 14.0574 9.51331 14.0601C9.6648 14.0628 9.81081 14.0038 9.91784 13.8967C10.025 13.7897 10.0839 13.6437 10.0813 13.4922C10.0786 13.3408 10.0145 13.1969 9.90376 13.0937L7.67122 10.8612C7.56645 10.7568 7.42454 10.6982 7.27679 10.6982C7.12891 10.6982 6.98714 10.7568 6.88237 10.8612L4.64983 13.0937C4.51702 13.2361 4.46818 13.4375 4.52076 13.625C4.57333 13.8125 4.71984 13.959 4.90734 14.0115C5.09484 14.0642 5.29615 14.0153 5.43868 13.8826L5.43864 13.8828Z" fill="#6C757D"/>
<path d="M20.3221 9.37293C20.2175 9.26828 20.0756 9.20936 19.9276 9.20936C19.7798 9.20936 19.6379 9.26828 19.5332 9.37293L18.2532 10.6521V6.04641C18.2529 5.50384 18.0371 4.98347 17.6535 4.59976C17.2698 4.21617 16.7494 4.00038 16.2068 4H8.7648C8.22222 4.00037 7.70185 4.21615 7.31814 4.59976C6.93456 4.98347 6.71877 5.50387 6.71838 6.04641V8.27896C6.71838 8.47841 6.82478 8.66267 6.99745 8.76233C7.17013 8.862 7.38292 8.862 7.55559 8.76233C7.72826 8.66267 7.83466 8.47841 7.83466 8.27896V6.04641C7.83503 5.79986 7.9332 5.56351 8.10749 5.38912C8.28191 5.21483 8.51825 5.11665 8.76479 5.11628H16.2068C16.4534 5.11665 16.6897 5.21483 16.8641 5.38912C17.0384 5.56354 17.1366 5.79988 17.1369 6.04641V10.6521L15.857 9.37293C15.7538 9.26218 15.6099 9.19802 15.4585 9.1954C15.3071 9.19279 15.161 9.25171 15.054 9.35873C14.9469 9.46587 14.8879 9.61189 14.8906 9.76327C14.8933 9.91476 14.9573 10.0585 15.0681 10.1618L17.3006 12.3944C17.4054 12.4986 17.5473 12.5573 17.6951 12.5573C17.8429 12.5573 17.9847 12.4986 18.0895 12.3944L20.322 10.1618C20.4268 10.0573 20.4856 9.91538 20.4856 9.76738C20.4856 9.61938 20.4268 9.47748 20.322 9.37296L20.3221 9.37293Z" fill="#6C757D"/>
</svg>
