<svg width="360" height="80" viewBox="0 0 360 80" fill="none" xmlns="http://www.w3.org/2000/svg">
<path d="M26.0795 75.4318C23.8295 75.4318 21.8977 74.6364 20.2841 73.0455C18.6932 71.4318 17.8977 69.5 17.8977 67.25C17.8977 65.0227 18.6932 63.1136 20.2841 61.5227C21.8977 59.9318 23.8295 59.1364 26.0795 59.1364C28.2613 59.1364 30.1704 59.9318 31.8068 61.5227C33.4432 63.1136 34.2613 65.0227 34.2613 67.25C34.2613 68.75 33.875 70.125 33.1023 71.375C32.3523 72.6023 31.3636 73.5909 30.1363 74.3409C28.9091 75.0682 27.5568 75.4318 26.0795 75.4318Z" fill="white"/>
<path d="M42.6174 74.5455V4.72728H89.6628V16.8977H57.3787V33.5341H87.2424V45.7046H57.3787V62.375H89.7992V74.5455H42.6174Z" fill="white"/>
<path d="M127.971 74.5455H112.153L136.256 4.72728H155.278L179.346 74.5455H163.528L146.04 20.6818H145.494L127.971 74.5455ZM126.983 47.1023H164.346V58.625H126.983V47.1023Z" fill="white"/>
<path d="M240.164 24.8068C239.891 22.0568 238.72 19.9205 236.652 18.3977C234.584 16.875 231.777 16.1136 228.232 16.1136C225.823 16.1136 223.789 16.4546 222.13 17.1364C220.47 17.7955 219.198 18.7159 218.311 19.8977C217.448 21.0796 217.016 22.4205 217.016 23.9205C216.97 25.1705 217.232 26.2614 217.8 27.1932C218.391 28.125 219.198 28.9318 220.22 29.6136C221.243 30.2727 222.425 30.8523 223.766 31.3523C225.107 31.8296 226.539 32.2386 228.061 32.5796L234.334 34.0796C237.38 34.7614 240.175 35.6705 242.72 36.8068C245.266 37.9432 247.47 39.3409 249.334 41C251.198 42.6591 252.641 44.6136 253.664 46.8636C254.709 49.1136 255.243 51.6932 255.266 54.6023C255.243 58.875 254.152 62.5796 251.993 65.7159C249.857 68.8296 246.766 71.25 242.72 72.9773C238.698 74.6818 233.845 75.5341 228.164 75.5341C222.527 75.5341 217.618 74.6705 213.436 72.9432C209.277 71.2159 206.027 68.6591 203.686 65.2727C201.368 61.8636 200.152 57.6477 200.039 52.625H214.323C214.482 54.9659 215.152 56.9205 216.334 58.4886C217.539 60.0341 219.141 61.2046 221.141 62C223.164 62.7727 225.448 63.1591 227.993 63.1591C230.493 63.1591 232.664 62.7955 234.505 62.0682C236.368 61.3409 237.811 60.3296 238.834 59.0341C239.857 57.7386 240.368 56.25 240.368 54.5682C240.368 53 239.902 51.6818 238.97 50.6136C238.061 49.5455 236.72 48.6364 234.948 47.8864C233.198 47.1364 231.05 46.4546 228.505 45.8409L220.902 43.9318C215.016 42.5 210.368 40.2614 206.959 37.2159C203.55 34.1705 201.857 30.0682 201.88 24.9091C201.857 20.6818 202.982 16.9886 205.255 13.8296C207.55 10.6705 210.698 8.20456 214.698 6.43183C218.698 4.6591 223.243 3.77274 228.334 3.77274C233.516 3.77274 238.039 4.6591 241.902 6.43183C245.789 8.20456 248.811 10.6705 250.97 13.8296C253.13 16.9886 254.243 20.6477 254.311 24.8068H240.164Z" fill="white"/>
<path d="M275.643 4.72728H292.177L308.097 34.7955H308.779L324.7 4.72728H341.234L315.768 49.8636V74.5455H301.109V49.8636L275.643 4.72728Z" fill="white"/>
</svg>
