<svg width="26" height="26" viewBox="0 0 26 26" fill="none" xmlns="http://www.w3.org/2000/svg">
<path d="M24.8809 12.8893C24.8809 12.2799 24.7871 11.6237 24.6934 10.9205H13.6309V14.9518H20.2402C20.0996 15.6549 19.8184 16.358 19.4434 17.0143C18.8809 17.858 18.1777 18.5612 17.334 19.0299C16.2559 19.6862 15.0371 19.9674 13.6309 19.9674C12.3184 19.9674 11.0996 19.6393 10.0215 18.983C8.89648 18.3268 8.05273 17.4362 7.39648 16.3112C6.74023 15.1862 6.41211 13.9674 6.41211 12.608C6.41211 11.0612 6.83398 9.65491 7.67773 8.43616C8.42773 7.31116 9.45898 6.46741 10.7715 5.90491C12.0371 5.34241 13.3496 5.15491 14.6621 5.34241C16.0684 5.52991 17.2402 6.13928 18.2715 7.07678L21.4121 4.02991C19.2559 2.01428 16.6309 0.983032 13.6309 0.983032C11.5215 0.983032 9.59961 1.54553 7.81836 2.57678C6.03711 3.60803 4.58398 5.01428 3.55273 6.79553C2.52148 8.57678 2.00586 10.5455 2.00586 12.608C2.00586 14.7174 2.52148 16.6393 3.55273 18.4205C4.58398 20.2018 6.03711 21.6549 7.81836 22.6862C9.59961 23.7174 11.5215 24.233 13.6309 24.233C15.834 24.233 17.8027 23.7643 19.4902 22.7799C21.1777 21.8424 22.5371 20.483 23.4746 18.7487C24.4121 17.0612 24.8809 15.0924 24.8809 12.8893Z" fill="#152536"/>
</svg>
