<svg width="16" height="16" viewBox="0 0 16 16" fill="none" xmlns="http://www.w3.org/2000/svg">
<path fill-rule="evenodd" clip-rule="evenodd" d="M13.7791 3.28033C14.072 2.98744 14.072 2.51256 13.7791 2.21967C13.4862 1.92678 13.0114 1.92678 12.7185 2.21967L7.99934 6.93879L3.28033 2.21978C2.98744 1.92688 2.51256 1.92688 2.21967 2.21978C1.92678 2.51267 1.92678 2.98754 2.21967 3.28044L6.93868 7.99945L2.21967 12.7185C1.92678 13.0113 1.92678 13.4862 2.21967 13.7791C2.51256 14.072 2.98744 14.072 3.28033 13.7791L7.99934 9.06011L12.7185 13.7792C13.0114 14.0721 13.4862 14.0721 13.7791 13.7792C14.072 13.4863 14.072 13.0115 13.7791 12.7186L9.06 7.99945L13.7791 3.28033Z" fill="#ABB5BE"/>
</svg>
