<svg width="24" height="24" viewBox="0 0 24 24" fill="none" xmlns="http://www.w3.org/2000/svg">
<path d="M5.62469 19.6124L6.09321 20.1981H6.09322L5.62469 19.6124ZM8.20832 17.5455L8.67684 18.1312L8.20832 17.5455ZM8.23261 17.4712L8.11844 18.2125L8.23261 17.4712ZM4.01229 12.883L3.26411 12.9353L4.01229 12.883ZM4.75 9C4.75 6.65279 6.65279 4.75 9 4.75V3.25C5.82436 3.25 3.25 5.82436 3.25 9H4.75ZM4.75 12.5298V9H3.25V12.5298H4.75ZM4.76047 12.8308C4.75353 12.7315 4.75 12.6311 4.75 12.5298H3.25C3.25 12.666 3.25475 12.8012 3.26411 12.9353L4.76047 12.8308ZM4.75 18.8316V12.888H3.25V18.8316H4.75ZM5.15617 19.0268C4.99248 19.1577 4.75 19.0412 4.75 18.8316H3.25C3.25 20.299 4.94738 21.1148 6.09321 20.1981L5.15617 19.0268ZM7.7398 16.9599L5.15617 19.0268L6.09322 20.1981L8.67684 18.1312L7.7398 16.9599ZM9 16.7798C8.77741 16.7798 8.5593 16.7627 8.34679 16.73L8.11844 18.2125C8.40625 18.2568 8.7007 18.2798 9 18.2798V16.7798ZM15.9122 16.7798H9V18.2798H15.9122V16.7798ZM20.1622 12.5298C20.1622 14.877 18.2594 16.7798 15.9122 16.7798V18.2798C19.0878 18.2798 21.6622 15.7054 21.6622 12.5298H20.1622ZM20.1622 9V12.5298H21.6622V9H20.1622ZM15.9122 4.75C18.2594 4.75 20.1622 6.65279 20.1622 9H21.6622C21.6622 5.82436 19.0878 3.25 15.9122 3.25V4.75ZM9 4.75H15.9122V3.25H9V4.75ZM8.67684 18.1312C9.0255 17.8523 9.06636 17.3369 8.76601 17.0066L7.6561 18.0156C7.37417 17.7054 7.41252 17.2217 7.7398 16.9599L8.67684 18.1312ZM4.5611 12.3812C4.09783 11.8716 3.25 12.1992 3.25 12.888H4.75C4.75 13.5704 3.91011 13.895 3.45118 13.3902L4.5611 12.3812ZM8.76601 17.0066C9.23453 17.5219 8.78287 18.3148 8.11844 18.2125L8.34679 16.73C7.63783 16.6208 7.15726 17.4668 7.6561 18.0156L8.76601 17.0066ZM3.26411 12.9353C3.21492 12.2306 4.08362 11.8559 4.5611 12.3812L3.45118 13.3902C3.93318 13.9204 4.81012 13.5421 4.76047 12.8308L3.26411 12.9353Z" fill="#152536"/>
<circle cx="8.27039" cy="10.807" r="1.05701" fill="#152536"/>
<circle cx="12.4984" cy="10.807" r="1.05701" fill="#152536"/>
<circle cx="16.7264" cy="10.807" r="1.05701" fill="#152536"/>
</svg>
