<svg width="24" height="24" viewBox="0 0 24 24" fill="none" xmlns="http://www.w3.org/2000/svg">
<circle r="3.40426" transform="matrix(-1 0 0 1 12.2128 8.40426)" stroke="#6C757D" stroke-width="1.5"/>
<path d="M6.25537 16.8594C6.25537 16.1272 6.71567 15.474 7.40524 15.2277V15.2277C10.5141 14.1174 13.9115 14.1174 17.0204 15.2277V15.2277C17.71 15.474 18.1703 16.1272 18.1703 16.8594V17.979C18.1703 18.9896 17.2752 19.7659 16.2748 19.6229L15.9412 19.5753C13.4682 19.222 10.9575 19.222 8.48442 19.5753L8.15087 19.6229C7.15044 19.7659 6.25537 18.9896 6.25537 17.979V16.8594Z" stroke="#6C757D" stroke-width="1.5"/>
<path d="M17.3191 11.9023C18.7964 11.9023 19.9939 10.7047 19.9939 9.22751C19.9939 7.75027 18.7964 6.55273 17.3191 6.55273" stroke="#6C757D" stroke-width="1.5" stroke-linecap="round"/>
<path d="M20.2486 18.0046L20.5106 18.042C21.2967 18.1543 22 17.5444 22 16.7503V15.8707C22 15.2953 21.6383 14.7821 21.0965 14.5886C20.5561 14.3956 20.0045 14.2453 19.4468 14.1377" stroke="#6C757D" stroke-width="1.5" stroke-linecap="round"/>
<path d="M6.68088 11.9023C5.20364 11.9023 4.0061 10.7047 4.0061 9.22751C4.0061 7.75027 5.20364 6.55273 6.68088 6.55273" stroke="#6C757D" stroke-width="1.5" stroke-linecap="round"/>
<path d="M3.75143 18.0046L3.48935 18.042C2.7033 18.1543 2.00003 17.5444 2.00003 16.7503V15.8707C2.00003 15.2953 2.3617 14.7821 2.9035 14.5886C3.44395 14.3956 3.99549 14.2453 4.55322 14.1377" stroke="#6C757D" stroke-width="1.5" stroke-linecap="round"/>
</svg>
