<svg width="11" height="13" viewBox="0 0 11 13" fill="none" xmlns="http://www.w3.org/2000/svg">
<path d="M6.96094 6.19531C6.96094 6.00781 6.89062 5.86719 6.77344 5.72656C6.65625 5.60938 6.51562 5.53906 6.35156 5.53906C6.16406 5.53906 6.02344 5.60938 5.90625 5.72656C5.78906 5.86719 5.74219 6.00781 5.74219 6.19531C5.74219 6.38281 5.78906 6.54688 5.90625 6.6875C6.02344 6.82812 6.16406 6.875 6.35156 6.875C6.51562 6.875 6.65625 6.82812 6.77344 6.6875C6.89062 6.54688 6.96094 6.38281 6.96094 6.19531ZM4.17188 5.53906C4.33594 5.53906 4.47656 5.60938 4.59375 5.72656C4.71094 5.86719 4.78125 6.00781 4.78125 6.19531C4.78125 6.38281 4.71094 6.54688 4.59375 6.6875C4.47656 6.82812 4.33594 6.875 4.17188 6.875C3.98438 6.875 3.84375 6.82812 3.72656 6.6875C3.60938 6.54688 3.5625 6.38281 3.5625 6.19531C3.5625 6.00781 3.60938 5.86719 3.72656 5.72656C3.84375 5.60938 3.98438 5.53906 4.17188 5.53906ZM10.5 1.74219C10.5 1.41406 10.3594 1.10938 10.125 0.875C9.89062 0.640625 9.60938 0.5 9.28125 0.5H1.21875C0.890625 0.5 0.585938 0.640625 0.351562 0.875C0.117188 1.10938 0 1.41406 0 1.74219V9.85156C0 10.2031 0.117188 10.5078 0.351562 10.7422C0.585938 10.9766 0.890625 11.0938 1.21875 11.0938H8.03906L7.71094 9.96875L8.15625 10.3906C8.83594 11.0234 9.42188 11.5625 9.91406 11.9844L10.5 12.5V1.74219ZM8.78906 7.41406L8.69531 7.55469C8.60156 7.67188 8.48438 7.76562 8.36719 7.85938C8.17969 8 7.99219 8.11719 7.80469 8.16406C7.52344 8.28125 7.24219 8.32812 6.96094 8.32812L6.5625 7.85938C6.79688 7.78906 7.00781 7.69531 7.19531 7.55469C7.3125 7.48438 7.42969 7.39062 7.54688 7.27344L7.64062 7.13281C7.40625 7.29688 7.19531 7.41406 6.96094 7.48438C6.32812 7.76562 5.67188 7.85938 4.96875 7.8125C4.3125 7.76562 3.72656 7.57812 3.21094 7.27344L2.95312 7.13281L3.07031 7.27344C3.16406 7.36719 3.25781 7.46094 3.39844 7.55469C3.58594 7.69531 3.77344 7.78906 4.00781 7.83594L3.60938 8.32812C3.30469 8.32812 3.02344 8.28125 2.76562 8.16406C2.55469 8.11719 2.36719 8 2.20312 7.85938C2.0625 7.76562 1.96875 7.67188 1.875 7.55469L1.78125 7.41406C1.78125 6.85156 1.85156 6.26562 2.01562 5.65625C2.10938 5.23438 2.22656 4.8125 2.41406 4.41406L2.64844 3.92188C2.88281 3.73438 3.16406 3.59375 3.46875 3.47656C3.65625 3.40625 3.86719 3.35938 4.07812 3.3125L4.33594 3.28906L4.38281 3.35938C4.05469 3.45312 3.77344 3.57031 3.49219 3.71094C3.30469 3.80469 3.11719 3.92188 2.97656 4.01562L2.8125 4.15625L3.16406 3.96875C3.86719 3.6875 4.61719 3.54688 5.41406 3.54688C6.21094 3.57031 6.9375 3.78125 7.64062 4.15625C7.54688 4.08594 7.42969 3.99219 7.28906 3.89844C6.96094 3.71094 6.58594 3.52344 6.16406 3.38281L6.23438 3.28906C6.375 3.28906 6.53906 3.3125 6.75 3.35938C7.17188 3.47656 7.54688 3.66406 7.92188 3.92188C8.0625 4.20312 8.20312 4.53125 8.36719 4.95312C8.64844 5.79688 8.78906 6.61719 8.78906 7.41406Z" fill="#ABB5BE"/>
</svg>
