<svg width="12" height="13" viewBox="0 0 12 13" fill="none" xmlns="http://www.w3.org/2000/svg">
<path d="M3.86719 9.82812C3.86719 9.875 3.82031 9.89844 3.75 9.89844C3.67969 9.92188 3.63281 9.875 3.63281 9.82812C3.63281 9.78125 3.67969 9.73438 3.75 9.73438C3.82031 9.73438 3.86719 9.78125 3.86719 9.82812ZM3.14062 9.71094C3.14062 9.75781 3.1875 9.82812 3.25781 9.82812C3.30469 9.85156 3.375 9.82812 3.39844 9.78125C3.39844 9.73438 3.375 9.6875 3.30469 9.66406C3.23438 9.64062 3.16406 9.66406 3.14062 9.71094ZM4.19531 9.6875C4.125 9.6875 4.07812 9.73438 4.07812 9.80469C4.07812 9.85156 4.14844 9.875 4.21875 9.85156C4.28906 9.82812 4.33594 9.80469 4.3125 9.75781C4.3125 9.71094 4.24219 9.66406 4.19531 9.6875ZM5.71875 0.6875C2.48438 0.6875 0 3.17188 0 6.40625C0 9.00781 1.61719 11.2344 3.96094 12.0312C4.26562 12.0781 4.35938 11.8906 4.35938 11.75C4.35938 11.5859 4.35938 10.7891 4.35938 10.2969C4.35938 10.2969 2.71875 10.6484 2.36719 9.59375C2.36719 9.59375 2.10938 8.91406 1.73438 8.75C1.73438 8.75 1.19531 8.375 1.75781 8.375C1.75781 8.375 2.34375 8.42188 2.67188 8.98438C3.1875 9.89844 4.03125 9.64062 4.38281 9.47656C4.42969 9.10156 4.57031 8.84375 4.75781 8.67969C3.44531 8.53906 2.10938 8.35156 2.10938 6.10156C2.10938 5.44531 2.29688 5.14062 2.67188 4.71875C2.60156 4.55469 2.41406 3.94531 2.74219 3.125C3.21094 2.98438 4.35938 3.75781 4.35938 3.75781C4.82812 3.61719 5.32031 3.57031 5.8125 3.57031C6.32812 3.57031 6.82031 3.61719 7.28906 3.75781C7.28906 3.75781 8.41406 2.96094 8.90625 3.125C9.23438 3.94531 9.02344 4.55469 8.97656 4.71875C9.35156 5.14062 9.58594 5.44531 9.58594 6.10156C9.58594 8.35156 8.20312 8.53906 6.89062 8.67969C7.10156 8.86719 7.28906 9.21875 7.28906 9.78125C7.28906 10.5547 7.26562 11.5391 7.26562 11.7266C7.26562 11.8906 7.38281 12.0781 7.6875 12.0078C10.0312 11.2344 11.625 9.00781 11.625 6.40625C11.625 3.17188 8.97656 0.6875 5.71875 0.6875ZM2.27344 8.77344C2.22656 8.79688 2.25 8.86719 2.27344 8.91406C2.32031 8.9375 2.36719 8.96094 2.41406 8.9375C2.4375 8.91406 2.4375 8.84375 2.39062 8.79688C2.34375 8.77344 2.29688 8.75 2.27344 8.77344ZM2.01562 8.58594C1.99219 8.63281 2.01562 8.65625 2.0625 8.67969C2.10938 8.70312 2.15625 8.70312 2.17969 8.65625C2.17969 8.63281 2.15625 8.60938 2.10938 8.58594C2.0625 8.5625 2.03906 8.5625 2.01562 8.58594ZM2.76562 9.42969C2.74219 9.45312 2.74219 9.52344 2.8125 9.57031C2.85938 9.61719 2.92969 9.64062 2.95312 9.59375C2.97656 9.57031 2.97656 9.5 2.92969 9.45312C2.88281 9.40625 2.8125 9.38281 2.76562 9.42969ZM2.50781 9.07812C2.46094 9.10156 2.46094 9.17188 2.50781 9.21875C2.55469 9.26562 2.60156 9.28906 2.64844 9.26562C2.67188 9.24219 2.67188 9.17188 2.64844 9.125C2.60156 9.07812 2.55469 9.05469 2.50781 9.07812Z" fill="#ABB5BE"/>
</svg>
