<svg width="14" height="11" viewBox="0 0 14 11" fill="none" xmlns="http://www.w3.org/2000/svg">
<path d="M11.25 9.25H3.375C2.85938 9.25 2.41406 9.08594 2.03906 8.71094C1.66406 8.33594 1.5 7.89062 1.5 7.375V2.5H1.125C0.796875 2.5 0.539062 2.61719 0.328125 2.82812C0.09375 3.0625 0 3.32031 0 3.625V9.625C0 9.95312 0.09375 10.2109 0.328125 10.4219C0.539062 10.6562 0.796875 10.75 1.125 10.75H10.125C10.4297 10.75 10.6875 10.6562 10.9219 10.4219C11.1328 10.2109 11.25 9.95312 11.25 9.625V9.25ZM13.5 7.375C13.5 7.70312 13.3828 7.96094 13.1719 8.17188C12.9375 8.40625 12.6797 8.5 12.375 8.5H3.375C3.04688 8.5 2.78906 8.40625 2.57812 8.17188C2.34375 7.96094 2.25 7.70312 2.25 7.375V1.375C2.25 1.07031 2.34375 0.8125 2.57812 0.578125C2.78906 0.367188 3.04688 0.25 3.375 0.25H12.375C12.6797 0.25 12.9375 0.367188 13.1719 0.578125C13.3828 0.8125 13.5 1.07031 13.5 1.375V7.375ZM6 2.5C6 2.19531 5.88281 1.9375 5.67188 1.70312C5.4375 1.49219 5.17969 1.375 4.875 1.375C4.54688 1.375 4.28906 1.49219 4.07812 1.70312C3.84375 1.9375 3.75 2.19531 3.75 2.5C3.75 2.82812 3.84375 3.08594 4.07812 3.29688C4.28906 3.53125 4.54688 3.625 4.875 3.625C5.17969 3.625 5.4375 3.53125 5.67188 3.29688C5.88281 3.08594 6 2.82812 6 2.5ZM3.75 5.875V7H12V4.375L9.9375 2.3125C9.89062 2.26562 9.82031 2.24219 9.75 2.24219C9.65625 2.24219 9.60938 2.26562 9.5625 2.3125L6.375 5.5L5.4375 4.5625C5.39062 4.51562 5.32031 4.49219 5.25 4.49219C5.15625 4.49219 5.10938 4.51562 5.0625 4.5625L3.75 5.875Z" fill="#ABB5BE"/>
</svg>
