<svg width="92" height="19" viewBox="0 0 92 19" fill="none" xmlns="http://www.w3.org/2000/svg">
<path d="M2.01705 18.5485C1.55114 18.5485 1.15057 18.3837 0.815341 18.0542C0.480114 17.7189 0.3125 17.3155 0.3125 16.8439C0.3125 16.378 0.480114 15.9803 0.815341 15.6507C1.15057 15.3155 1.55114 15.1479 2.01705 15.1479C2.48295 15.1479 2.88352 15.3155 3.21875 15.6507C3.55398 15.9803 3.72159 16.378 3.72159 16.8439C3.72159 17.1564 3.64205 17.4434 3.48295 17.7047C3.32955 17.9604 3.125 18.1649 2.86932 18.3184C2.61364 18.4718 2.32955 18.5485 2.01705 18.5485Z" fill="#152536"/>
<path d="M7.33949 18.3865V0.931996H18.2827V3.19904H9.97301V8.51722H17.7116V10.7757H9.97301V16.1195H18.3849V18.3865H7.33949Z" fill="#152536"/>
<path d="M31.2749 18.3865H28.4794L34.7607 0.931996H37.8033L44.0845 18.3865H41.2891L36.3544 4.10245H36.218L31.2749 18.3865ZM31.7436 11.5513H40.8118V13.7672H31.7436V11.5513Z" fill="#152536"/>
<path d="M63.9844 5.51722C63.8935 4.7104 63.5185 4.0854 62.8594 3.64222C62.2003 3.19336 61.3707 2.96893 60.3707 2.96893C59.6548 2.96893 59.0355 3.08256 58.5128 3.30984C57.9901 3.53143 57.5838 3.83825 57.294 4.23029C57.0099 4.61665 56.8679 5.057 56.8679 5.55131C56.8679 5.96609 56.9645 6.32404 57.1577 6.62518C57.3565 6.92631 57.6151 7.17916 57.9332 7.3837C58.2571 7.58256 58.6037 7.75018 58.973 7.88654C59.3423 8.01722 59.6974 8.12518 60.0384 8.21041L61.7429 8.65359C62.2997 8.78995 62.8707 8.97461 63.456 9.20756C64.0412 9.44052 64.5838 9.74734 65.0838 10.128C65.5838 10.5087 65.9872 10.9803 66.294 11.5428C66.6065 12.1053 66.7628 12.7786 66.7628 13.5627C66.7628 14.5513 66.5071 15.4292 65.9957 16.1962C65.4901 16.9632 64.7543 17.5684 63.7884 18.0115C62.8281 18.4547 61.6662 18.6763 60.3026 18.6763C58.9957 18.6763 57.8651 18.4689 56.9105 18.0542C55.956 17.6394 55.2088 17.0513 54.669 16.2899C54.1293 15.5229 53.831 14.6138 53.7741 13.5627H56.4162C56.4673 14.1934 56.6719 14.7189 57.0298 15.1394C57.3935 15.5542 57.8565 15.8638 58.419 16.0684C58.9872 16.2672 59.6094 16.3667 60.2855 16.3667C61.0298 16.3667 61.6918 16.2502 62.2713 16.0172C62.8565 15.7786 63.3168 15.449 63.652 15.0286C63.9872 14.6025 64.1548 14.1053 64.1548 13.5371C64.1548 13.0201 64.0071 12.5968 63.7116 12.2672C63.4219 11.9377 63.027 11.665 62.527 11.449C62.0327 11.2331 61.473 11.0428 60.848 10.878L58.7855 10.3155C57.3878 9.93484 56.2798 9.37518 55.4616 8.63654C54.6491 7.89791 54.2429 6.92063 54.2429 5.70472C54.2429 4.69904 54.5156 3.8212 55.0611 3.0712C55.6065 2.3212 56.3452 1.73881 57.277 1.32404C58.2088 0.903587 59.2599 0.693359 60.4304 0.693359C61.6122 0.693359 62.6548 0.900746 63.5582 1.31552C64.4673 1.73029 65.1832 2.30131 65.706 3.02859C66.2287 3.75018 66.5014 4.57972 66.5241 5.51722H63.9844Z" fill="#152536"/>
<path d="M76.5632 0.931996H79.5547L84.1143 8.86666H84.3018L88.8615 0.931996H91.853L85.5206 11.5343V18.3865H82.8956V11.5343L76.5632 0.931996Z" fill="#152536"/>
</svg>
