<svg width="17" height="16" viewBox="0 0 17 16" fill="none" xmlns="http://www.w3.org/2000/svg">
<path d="M11.2834 5H5.7522C5.97095 3.59375 6.34595 2.4375 6.84595 1.5625C7.34595 0.6875 7.8772 0.25 8.5022 0.25C9.09595 0.25 9.65845 0.6875 10.1584 1.5625C10.6584 2.4375 11.0334 3.59375 11.2834 5ZM5.5022 8C5.5022 7.34375 5.53345 6.6875 5.59595 6H11.4084C11.4709 6.6875 11.5022 7.34375 11.5022 8C11.5022 8.6875 11.4709 9.34375 11.4084 10H5.59595C5.53345 9.34375 5.5022 8.6875 5.5022 8ZM15.6584 5H12.2834C11.9709 3.09375 11.4397 1.625 10.7209 0.5625C11.8147 0.90625 12.7834 1.46875 13.6584 2.25C14.5334 3.03125 15.1897 3.9375 15.6584 5ZM6.28345 0.5625C5.53345 1.625 5.0022 3.09375 4.72095 5H1.34595C1.78345 3.9375 2.4397 3.03125 3.3147 2.25C4.1897 1.46875 5.15845 0.90625 6.28345 0.5625ZM15.9709 6C16.1584 6.6875 16.2522 7.34375 16.2522 8C16.2522 8.6875 16.1584 9.34375 15.9709 10H12.4084C12.4709 9.3125 12.5022 8.65625 12.5022 8C12.5022 7.375 12.4709 6.6875 12.4084 6H15.9709ZM4.5022 8C4.5022 8.625 4.53345 9.3125 4.59595 10H1.03345C0.845947 9.3125 0.752197 8.65625 0.752197 8C0.752197 7.375 0.845947 6.6875 1.03345 6H4.59595C4.53345 6.6875 4.5022 7.375 4.5022 8ZM5.7522 11H11.2522C11.0022 12.4375 10.6584 13.5625 10.1584 14.4375C9.65845 15.3125 9.09595 15.75 8.5022 15.75C7.8772 15.75 7.34595 15.3125 6.84595 14.4375C6.34595 13.5625 5.97095 12.4375 5.7522 11ZM10.7209 15.4375C11.4709 14.4062 11.9709 12.9375 12.2834 11H15.6584C15.1897 12.0625 14.5334 13 13.6584 13.7812C12.7834 14.5625 11.8147 15.125 10.7209 15.4375ZM1.34595 11H4.72095C5.03345 12.9375 5.53345 14.4062 6.28345 15.4375C5.15845 15.125 4.1897 14.5625 3.3147 13.7812C2.4397 13 1.78345 12.0625 1.34595 11Z" fill="#ABB5BE"/>
</svg>
