<svg width="24" height="24" viewBox="0 0 24 24" fill="none" xmlns="http://www.w3.org/2000/svg">
<path d="M6.73289 18.0834L6.62988 18.8263H6.62988L6.73289 18.0834ZM16.9192 18.0834L17.0222 18.8263H17.0222L16.9192 18.0834ZM19.1856 13.1872L18.5414 13.5713L19.1856 13.1872ZM4.46642 13.1873L3.82226 12.8032L4.46642 13.1873ZM6.48897 8.08691C6.48897 5.13942 8.87838 2.75 11.8259 2.75V1.25C8.04996 1.25 4.98897 4.31099 4.98897 8.08691H6.48897ZM6.48897 10.1797V8.08691H4.98897V10.1797H6.48897ZM4.75 14.8851C4.75 14.4037 4.88169 13.9553 5.11058 13.5714L3.82226 12.8032C3.45868 13.4129 3.25 14.1258 3.25 14.8851H4.75ZM6.8359 17.3405C5.63628 17.1741 4.75 16.1312 4.75 14.8851H3.25C3.25 16.8448 4.65411 18.5523 6.62988 18.8263L6.8359 17.3405ZM11.826 17.7719C10.3341 17.7719 8.40649 17.5583 6.8359 17.3405L6.62988 18.8263C8.21264 19.0457 10.2253 19.2719 11.826 19.2719V17.7719ZM16.8162 17.3405C15.2456 17.5583 13.318 17.7719 11.826 17.7719V19.2719C13.4267 19.2719 15.4394 19.0457 17.0222 18.8263L16.8162 17.3405ZM18.9021 14.8851C18.9021 16.1312 18.0158 17.1741 16.8162 17.3405L17.0222 18.8263C18.998 18.5523 20.4021 16.8448 20.4021 14.8851H18.9021ZM18.5414 13.5713C18.7703 13.9552 18.9021 14.4036 18.9021 14.8851H20.4021C20.4021 14.1257 20.1933 13.4128 19.8297 12.803L18.5414 13.5713ZM17.1628 8.08691V10.1793H18.6628V8.08691H17.1628ZM11.8259 2.75C14.7734 2.75 17.1628 5.13942 17.1628 8.08691H18.6628C18.6628 4.31099 15.6018 1.25 11.8259 1.25V2.75ZM19.8297 12.803C19.5208 12.285 19.2402 11.87 19.0089 11.4065C18.7873 10.9627 18.6628 10.5668 18.6628 10.1793H17.1628C17.1628 10.8922 17.3928 11.5277 17.6668 12.0765C17.9309 12.6055 18.2867 13.1442 18.5414 13.5713L19.8297 12.803ZM4.98897 10.1797C4.98897 10.5671 4.86446 10.963 4.64297 11.4068C4.41165 11.8702 4.13113 12.2852 3.82226 12.8032L5.11058 13.5714C5.36525 13.1444 5.721 12.6057 5.98507 12.0767C6.25897 11.5279 6.48897 10.8925 6.48897 10.1797H4.98897Z" fill="#6C757D"/>
<path d="M14 20.834C13.5326 21.5369 12.7335 22.0001 11.8261 22.0001C10.9187 22.0001 10.1196 21.5369 9.65221 20.834" stroke="#6C757D" stroke-width="1.5" stroke-linecap="round"/>
</svg>
