<svg width="24" height="24" viewBox="0 0 24 24" fill="none" xmlns="http://www.w3.org/2000/svg">
<path fill-rule="evenodd" clip-rule="evenodd" d="M11.8259 2.75C8.87838 2.75 6.48897 5.13942 6.48897 8.08691V10.1797C6.48897 10.8925 6.25897 11.5279 5.98507 12.0767C5.79315 12.4612 5.5528 12.8507 5.33802 13.1989C5.25728 13.3297 5.18016 13.4547 5.11058 13.5714C4.88169 13.9553 4.75 14.4037 4.75 14.8851C4.75 16.1312 5.63628 17.1741 6.8359 17.3405C8.40649 17.5583 10.3341 17.7719 11.826 17.7719C13.318 17.7719 15.2456 17.5583 16.8162 17.3405C18.0158 17.1741 18.9021 16.1312 18.9021 14.8851C18.9021 14.4036 18.7703 13.9552 18.5414 13.5713C18.4718 13.4546 18.3947 13.3296 18.3139 13.1987C18.0991 12.8506 17.8587 12.461 17.6668 12.0765C17.3928 11.5277 17.1628 10.8922 17.1628 10.1793V8.08691C17.1628 5.13942 14.7734 2.75 11.8259 2.75ZM4.98897 8.08691C4.98897 4.31099 8.04996 1.25 11.8259 1.25C15.6018 1.25 18.6628 4.31099 18.6628 8.08691V10.1793C18.6628 10.5668 18.7873 10.9627 19.0089 11.4065C19.169 11.7273 19.3526 12.0248 19.553 12.3493C19.6421 12.4937 19.7346 12.6435 19.8297 12.803C20.1933 13.4128 20.4021 14.1257 20.4021 14.8851C20.4021 16.8448 18.998 18.5523 17.0222 18.8263C15.4394 19.0457 13.4267 19.2719 11.826 19.2719C10.2253 19.2719 8.21264 19.0457 6.62988 18.8263C4.6541 18.5523 3.25 16.8448 3.25 14.8851C3.25 14.1258 3.45868 13.4129 3.82226 12.8032C3.91737 12.6437 4.0098 12.4939 4.09893 12.3495C4.29923 12.025 4.48288 11.7275 4.64297 11.4068C4.86446 10.963 4.98897 10.5671 4.98897 10.1797V8.08691Z" fill="#6C757D"/>
<path fill-rule="evenodd" clip-rule="evenodd" d="M14.4152 20.2095C14.0702 19.9802 13.6047 20.0739 13.3754 20.4188C13.0411 20.9215 12.4718 21.2502 11.826 21.2502C11.1803 21.2502 10.6109 20.9215 10.2767 20.4188C10.0473 20.0739 9.58181 19.9802 9.23688 20.2095C8.89195 20.4389 8.79824 20.9044 9.02759 21.2493C9.62804 22.1524 10.6571 22.7502 11.826 22.7502C12.995 22.7502 14.024 22.1524 14.6245 21.2493C14.8538 20.9044 14.7601 20.4389 14.4152 20.2095Z" fill="#6C757D"/>
<circle cx="16" cy="6" r="4" fill="#DC3545"/>
</svg>
