<svg width="12" height="11" viewBox="0 0 12 11" fill="none" xmlns="http://www.w3.org/2000/svg">
<path d="M10.3125 4.25781C10.7344 4.25781 11.0625 4.42188 11.2969 4.72656C11.5312 5.05469 11.6016 5.38281 11.5312 5.75781C11.4609 6.13281 11.25 6.41406 10.875 6.60156C10.9219 6.78906 10.9453 6.97656 10.9453 7.1875C10.9453 7.84375 10.7109 8.45312 10.2656 8.99219C9.82031 9.53125 9.23438 9.95312 8.48438 10.2812C7.73438 10.6094 6.89062 10.75 6 10.75C5.10938 10.75 4.28906 10.6094 3.53906 10.2812C2.78906 9.95312 2.17969 9.53125 1.73438 8.99219C1.28906 8.45312 1.07812 7.84375 1.07812 7.1875C1.07812 7 1.10156 6.8125 1.14844 6.625C0.75 6.4375 0.515625 6.13281 0.445312 5.75781C0.375 5.38281 0.46875 5.05469 0.703125 4.72656C0.9375 4.42188 1.26562 4.28125 1.6875 4.28125C2.01562 4.28125 2.32031 4.42188 2.57812 4.65625C3.46875 4.04688 4.52344 3.69531 5.76562 3.64844L6.49219 0.414062C6.49219 0.367188 6.53906 0.34375 6.58594 0.296875C6.63281 0.25 6.67969 0.25 6.75 0.25L9.02344 0.765625C9.09375 0.625 9.21094 0.484375 9.35156 0.390625C9.49219 0.296875 9.65625 0.25 9.84375 0.25C10.1016 0.25 10.3125 0.34375 10.5 0.53125C10.6875 0.71875 10.7812 0.929688 10.7812 1.1875C10.7812 1.44531 10.6875 1.65625 10.5 1.84375C10.3125 2.03125 10.1016 2.10156 9.84375 2.10156C9.58594 2.10156 9.375 2.03125 9.1875 1.84375C9 1.65625 8.92969 1.44531 8.92969 1.1875L6.86719 0.71875L6.21094 3.64844C6.82031 3.67188 7.40625 3.76562 7.96875 3.95312C8.50781 4.14062 9 4.35156 9.42188 4.63281C9.65625 4.39844 9.96094 4.28125 10.3125 4.25781ZM3.02344 6.74219C3.02344 7 3.11719 7.21094 3.30469 7.39844C3.49219 7.58594 3.70312 7.65625 3.96094 7.65625C4.19531 7.65625 4.40625 7.58594 4.59375 7.39844C4.78125 7.21094 4.875 7 4.875 6.74219C4.875 6.48438 4.78125 6.27344 4.59375 6.08594C4.40625 5.89844 4.19531 5.80469 3.96094 5.80469C3.70312 5.80469 3.49219 5.89844 3.30469 6.08594C3.11719 6.27344 3.02344 6.48438 3.02344 6.74219ZM8.0625 8.92188C8.10938 8.89844 8.13281 8.85156 8.13281 8.78125C8.13281 8.73438 8.10938 8.66406 8.0625 8.61719C8.01562 8.57031 7.94531 8.54688 7.89844 8.54688C7.82812 8.54688 7.78125 8.57031 7.73438 8.61719C7.5 8.85156 7.14844 8.99219 6.67969 9.0625C6.21094 9.15625 5.74219 9.15625 5.27344 9.0625C4.80469 8.96875 4.45312 8.82812 4.24219 8.61719C4.19531 8.57031 4.14844 8.54688 4.10156 8.54688C4.03125 8.54688 3.98438 8.57031 3.9375 8.61719C3.89062 8.66406 3.86719 8.73438 3.86719 8.78125C3.86719 8.85156 3.89062 8.89844 3.9375 8.92188C4.21875 9.20312 4.61719 9.41406 5.17969 9.50781C5.71875 9.60156 6.25781 9.60156 6.82031 9.50781C7.35938 9.41406 7.78125 9.20312 8.0625 8.92188ZM8.03906 7.65625C8.27344 7.65625 8.50781 7.58594 8.69531 7.39844C8.88281 7.21094 8.97656 7 8.97656 6.74219C8.97656 6.48438 8.88281 6.27344 8.69531 6.08594C8.50781 5.89844 8.27344 5.80469 8.03906 5.80469C7.78125 5.80469 7.57031 5.89844 7.38281 6.08594C7.19531 6.27344 7.125 6.50781 7.125 6.74219C7.125 7 7.19531 7.21094 7.38281 7.39844C7.57031 7.58594 7.78125 7.65625 8.03906 7.65625Z" fill="#ABB5BE"/>
</svg>
