<svg width="24" height="24" viewBox="0 0 24 24" fill="none" xmlns="http://www.w3.org/2000/svg">
<path d="M4.93864 13.8828L6.21862 12.6036V17.9534C6.21899 18.496 6.43477 19.0163 6.81838 19.4001C7.20209 19.7836 7.72249 19.9994 8.26503 19.9998H15.7071C16.2496 19.9994 16.77 19.7837 17.1537 19.4001C17.5373 19.0163 17.7531 18.4959 17.7535 17.9534V15.7209C17.7535 15.5214 17.6471 15.3371 17.4744 15.2375C17.3017 15.1378 17.0889 15.1378 16.9163 15.2375C16.7436 15.3371 16.6372 15.5214 16.6372 15.7209V17.9534C16.6368 18.2 16.5387 18.4363 16.3644 18.6107C16.1899 18.785 15.9536 18.8832 15.7071 18.8835H8.26504C8.01849 18.8832 7.78214 18.785 7.60775 18.6107C7.43346 18.4363 7.33528 18.1999 7.33491 17.9534V12.6033L8.61489 13.8826C8.71805 13.9934 8.86194 14.0574 9.01331 14.0601C9.1648 14.0628 9.31081 14.0038 9.41784 13.8967C9.52499 13.7897 9.58391 13.6437 9.5813 13.4922C9.57856 13.3408 9.51452 13.1969 9.40376 13.0937L7.17122 10.8612C7.06645 10.7568 6.92454 10.6982 6.77679 10.6982C6.62891 10.6982 6.48714 10.7568 6.38237 10.8612L4.14983 13.0937C4.01702 13.2361 3.96818 13.4375 4.02076 13.625C4.07333 13.8125 4.21984 13.959 4.40734 14.0115C4.59484 14.0642 4.79615 14.0153 4.93868 13.8826L4.93864 13.8828Z" fill="#152536"/>
<path d="M19.8219 9.37293C19.7174 9.26828 19.5755 9.20936 19.4275 9.20936C19.2796 9.20936 19.1377 9.26828 19.0331 9.37293L17.7531 10.6521V6.04641C17.7527 5.50384 17.537 4.98347 17.1534 4.59976C16.7696 4.21617 16.2492 4.00038 15.7067 4H8.26467C7.7221 4.00037 7.20173 4.21615 6.81802 4.59976C6.43444 4.98347 6.21864 5.50387 6.21826 6.04641V8.27896C6.21826 8.47841 6.32466 8.66267 6.49733 8.76233C6.67 8.862 6.88279 8.862 7.05547 8.76233C7.22814 8.66267 7.33453 8.47841 7.33453 8.27896V6.04641C7.33491 5.79986 7.43308 5.56351 7.60737 5.38912C7.78179 5.21483 8.01813 5.11665 8.26467 5.11628H15.7067C15.9532 5.11665 16.1896 5.21483 16.364 5.38912C16.5383 5.56354 16.6364 5.79988 16.6368 6.04641V10.6521L15.3568 9.37293C15.2537 9.26218 15.1098 9.19802 14.9584 9.1954C14.8069 9.19279 14.6609 9.25171 14.5539 9.35873C14.4467 9.46587 14.3878 9.61189 14.3904 9.76327C14.3932 9.91476 14.4572 10.0585 14.568 10.1618L16.8005 12.3944C16.9053 12.4986 17.0472 12.5573 17.1949 12.5573C17.3428 12.5573 17.4846 12.4986 17.5894 12.3944L19.8219 10.1618C19.9267 10.0573 19.9855 9.91538 19.9855 9.76738C19.9855 9.61938 19.9267 9.47748 19.8219 9.37296L19.8219 9.37293Z" fill="#152536"/>
</svg>
