<svg width="35" height="35" viewBox="0 0 35 35" fill="none" xmlns="http://www.w3.org/2000/svg">
<path d="M12.7197 12.2197C13.0126 11.9268 13.4874 11.9268 13.7803 12.2197L17.75 16.1893L21.7197 12.2197C22.0126 11.9268 22.4874 11.9268 22.7803 12.2197C23.0732 12.5126 23.0732 12.9874 22.7803 13.2803L18.8107 17.25L22.7803 21.2197C23.0732 21.5126 23.0732 21.9874 22.7803 22.2803C22.4874 22.5732 22.0126 22.5732 21.7197 22.2803L17.75 18.3107L13.7803 22.2803C13.4874 22.5732 13.0126 22.5732 12.7197 22.2803C12.4268 21.9874 12.4268 21.5126 12.7197 21.2197L16.6893 17.25L12.7197 13.2803C12.4268 12.9874 12.4268 12.5126 12.7197 12.2197Z" fill="#664D03"/>
</svg>
